<svg width="24" height="24" viewBox="0 0 24 24" fill="none" xmlns="http://www.w3.org/2000/svg">
<path d="M8.625 12C9.24632 12 9.75 11.4963 9.75 10.875C9.75 10.2537 9.24632 9.75 8.625 9.75C8.00368 9.75 7.5 10.2537 7.5 10.875C7.5 11.4963 8.00368 12 8.625 12Z" fill="#EEEEEE"/>
<path d="M12.0023 18C9.87328 18 8.08266 16.6158 7.51594 14.7267C7.50009 14.6705 7.49759 14.6114 7.50864 14.554C7.51969 14.4967 7.54399 14.4427 7.57959 14.3964C7.61519 14.3501 7.66112 14.3127 7.71371 14.2873C7.7663 14.2619 7.8241 14.2491 7.8825 14.25H16.118C16.1764 14.2491 16.2342 14.2619 16.2868 14.2873C16.3393 14.3127 16.3853 14.3501 16.4209 14.3964C16.4565 14.4427 16.4808 14.4967 16.4918 14.554C16.5029 14.6114 16.5004 14.6705 16.4845 14.7267C15.9225 16.6158 14.1314 18 12.0023 18Z" fill="#EEEEEE"/>
<path d="M15.375 12C15.9963 12 16.5 11.4963 16.5 10.875C16.5 10.2537 15.9963 9.75 15.375 9.75C14.7537 9.75 14.25 10.2537 14.25 10.875C14.25 11.4963 14.7537 12 15.375 12Z" fill="#EEEEEE"/>
<path fill-rule="evenodd" clip-rule="evenodd" d="M12 3C7.02944 3 3 7.02944 3 12C3 16.9706 7.02944 21 12 21C16.9706 21 21 16.9706 21 12C21 7.02944 16.9706 3 12 3ZM1.5 12C1.5 6.20101 6.20101 1.5 12 1.5C17.799 1.5 22.5 6.20101 22.5 12C22.5 17.799 17.799 22.5 12 22.5C6.20101 22.5 1.5 17.799 1.5 12Z" fill="#EEEEEE"/>
</svg>
