<svg width="24" height="24" viewBox="0 0 24 24" fill="none" xmlns="http://www.w3.org/2000/svg">
<path fill-rule="evenodd" clip-rule="evenodd" d="M5.26652 1.50079L8.30031 1.643L8.31547 1.64433C8.53551 1.66361 8.75222 1.6994 8.95931 1.75694C8.96445 1.75567 8.96969 1.75438 8.97502 1.75308C9.1052 1.72141 9.29241 1.68289 9.5479 1.64559C10.0584 1.57105 10.8452 1.50084 12 1.50084C14.3194 1.50084 15.6707 2.24479 16.7412 3.00084H19.5C20.4946 3.00084 21.4484 3.39593 22.1517 4.09919C22.8549 4.80245 23.25 5.75628 23.25 6.75084V9.00084C23.25 9.99541 22.8549 10.9492 22.1517 11.6525C21.4484 12.3558 20.4946 12.7508 19.5 12.7508H18.0962C17.9666 12.7519 17.8395 12.7857 17.7265 12.8492C17.6232 12.9074 17.5349 12.9886 17.4685 13.0864C17.4684 13.0867 17.4682 13.087 17.4681 13.0873C17.4532 13.1186 17.4311 13.1643 17.4012 13.225C17.3414 13.3463 17.25 13.5278 17.1206 13.7749C16.8618 14.269 16.451 15.026 15.837 16.0893C15.2113 17.173 14.3045 18.5177 13.522 19.6654C13.4263 19.8058 13.3324 19.9432 13.2411 20.0769C12.9556 20.4949 12.6945 20.8773 12.4756 21.2048C12.1766 21.6522 11.9892 21.9495 11.9208 22.0863C11.7938 22.3403 11.5341 22.5008 11.25 22.5008C10.3766 22.5008 9.61625 22.1617 9.16744 21.5099C8.72295 20.8644 8.67589 20.0452 8.94831 19.2668C8.94833 19.2668 8.94835 19.2667 8.94837 19.2666C9.07425 18.9068 9.20883 18.5631 9.33851 18.2352C9.35285 18.1989 9.3671 18.1629 9.38128 18.1271C9.4969 17.8351 9.60717 17.5566 9.71006 17.2746C9.91162 16.7221 10.0757 16.1797 10.1658 15.5902L4.46738 15.1412C3.18764 15.1219 2.25 13.9674 2.25 12.7977V12.7878L2.25001 12.7858C2.2516 12.4873 2.31246 12.1952 2.42599 11.9253C2.04505 11.8242 1.69384 11.6239 1.41038 11.3405C0.989261 10.9194 0.75186 10.3487 0.750007 9.75318L0.75 9.75084L0.750007 9.74851C0.75186 9.15296 0.989261 8.58234 1.41038 8.16122C1.52682 8.04478 1.6547 7.94238 1.79137 7.85512C1.60306 7.52165 1.5011 7.14262 1.50001 6.75294L1.5 6.75084L1.50001 6.74874C1.50167 6.15308 1.73904 5.58228 2.16024 5.16108C2.43975 4.88158 2.78513 4.68302 3.15993 4.58058C3.05603 4.31967 3.00081 4.03918 3.00001 3.75294L3 3.75084L3.00001 3.74874C3.00167 3.15308 3.23904 2.58228 3.66024 2.16108C4.08144 1.73988 4.65224 1.50251 5.2479 1.50085L5.26652 1.50079ZM3.74476 6.0009C3.54812 6.00336 3.3601 6.08255 3.2209 6.22174C3.08047 6.36217 3.00112 6.5523 3.00001 6.75084C3.00112 6.94938 3.08047 7.13951 3.2209 7.27994C3.3601 7.41914 3.54812 7.49833 3.74476 7.50079L8.21797 7.4076C8.52304 7.38652 8.71811 7.29006 8.82726 7.19003C8.92744 7.09822 9 6.96487 9 6.75084C9 6.53515 8.92617 6.39739 8.82514 6.30408C8.71662 6.20386 8.52423 6.10897 8.22479 6.09423L3.74476 6.0009ZM9.88299 8.25603C10.2832 7.86797 10.5 7.34135 10.5 6.75084C10.5 6.16414 10.286 5.63643 9.88947 5.24657C10.2627 4.87467 10.5 4.362 10.5 3.75084C10.5 3.51084 10.4677 3.27793 10.3987 3.0593C10.8044 3.02572 11.3309 3.00084 12 3.00084C14.0339 3.00084 15.0997 3.65979 16.0589 4.35739C16.1871 4.45062 16.3415 4.50084 16.5 4.50084H19.5C20.0967 4.50084 20.669 4.7379 21.091 5.15985C21.513 5.58181 21.75 6.15411 21.75 6.75084V9.00084C21.75 9.59758 21.513 10.1699 21.091 10.5918C20.669 11.0138 20.0967 11.2508 19.5 11.2508H18.0938L18.0896 11.2509C17.7046 11.253 17.3265 11.3532 16.991 11.542C16.6555 11.7307 16.3736 12.0019 16.1719 12.3299L16.8108 12.7227C16.1292 12.4097 16.1293 12.4096 16.1293 12.4095L16.1292 12.4098L16.1267 12.4152C16.1242 12.4206 16.12 12.4295 16.114 12.442C16.102 12.4671 16.0829 12.5068 16.0558 12.5617C16.0017 12.6715 15.9158 12.8421 15.7918 13.079C15.5436 13.553 15.1428 14.2918 14.538 15.3393C13.945 16.3663 13.0705 17.6649 12.2827 18.8203C12.1891 18.9577 12.0966 19.093 12.0061 19.2256C11.7193 19.6454 11.452 20.0369 11.2285 20.3713C11.0896 20.5791 10.9597 20.7765 10.8494 20.9517C10.6178 20.8877 10.4798 20.7709 10.4029 20.6592C10.2849 20.4879 10.2147 20.189 10.3641 19.7622L10.3642 19.7621C10.4792 19.4332 10.604 19.1139 10.7334 18.7868C10.7475 18.7511 10.7617 18.7152 10.776 18.6791C10.8907 18.3895 11.0088 18.0912 11.1192 17.7887C11.3694 17.103 11.5914 16.3653 11.6886 15.5175L11.6887 15.5163C11.7238 15.2056 11.6272 14.9001 11.4918 14.6773C11.3714 14.4792 11.0846 14.1378 10.6068 14.1203L10.0729 14.0782C10.3371 13.7425 10.5 13.3139 10.5 12.7977C10.5 12.2011 10.2895 11.6621 9.8599 11.2661C9.85935 11.2656 9.85879 11.2651 9.85824 11.2646C10.2463 10.9034 10.5 10.3952 10.5 9.75084C10.5 9.12403 10.2583 8.61931 9.88299 8.25603ZM2.99581 9.00089C2.79883 9.0032 2.61046 9.08246 2.47104 9.22188C2.33063 9.36229 2.25124 9.55235 2.25001 9.75084C2.25124 9.94934 2.33063 10.1394 2.47104 10.2798C2.61046 10.4192 2.79883 10.4985 2.99581 10.5008L8.21804 10.4075C8.77838 10.3669 9 10.0652 9 9.75084C9 9.42692 8.76723 9.12303 8.22476 9.09426L2.99581 9.00089ZM4.49224 12.0478C4.29682 12.0498 4.10977 12.128 3.97107 12.266C3.83092 12.4054 3.75149 12.5945 3.75 12.7921V12.7977C3.75 13.2617 4.13562 13.6312 4.48545 13.6413L8.20669 13.4552C8.77606 13.4168 9 13.1131 9 12.7977C9 12.5693 8.92926 12.4483 8.84323 12.369C8.744 12.2775 8.54988 12.1759 8.20444 12.1406L4.49224 12.0478ZM5.24152 4.50074L8.23829 4.40709H8.25C8.72586 4.40709 9 4.09942 9 3.75084C9 3.50622 8.93093 3.40855 8.86843 3.3525C8.78409 3.27687 8.59399 3.17649 8.19882 3.13989L5.23666 3.00104C5.04296 3.00555 4.85819 3.08446 4.7209 3.22174C4.58047 3.36217 4.50112 3.5523 4.50001 3.75084C4.50112 3.94938 4.58047 4.13951 4.7209 4.27994C4.85933 4.41837 5.04606 4.49745 5.24152 4.50074Z" fill="#EEEEEE"/>
</svg>
