<svg width="25" height="25" viewBox="0 0 25 25" fill="none" xmlns="http://www.w3.org/2000/svg">
<path d="M10.2751 21.2011L9.58376 21.4164C9.6825 21.6603 9.89356 21.8504 10.1443 21.9214C10.395 21.9923 10.6511 21.9344 10.8244 21.7675L10.2751 21.2011ZM3.79154 14.7199L3.22528 14.1704C3.05828 14.3438 3.00028 14.5999 3.07125 14.8507C3.14223 15.1015 3.33248 15.3126 3.57646 15.4113L3.79154 14.7199ZM21.0341 10.8427L20.4848 10.2763L21.0341 10.8427ZM4.35781 15.2695L14.7222 4.51201L13.5897 3.41299L3.22528 14.1704L4.35781 15.2695ZM20.4848 10.2763L9.72572 20.6347L10.8244 21.7675L21.5835 11.4091L20.4848 10.2763ZM3.79154 14.7199C3.57646 15.4113 3.57634 15.4113 3.57622 15.4112C3.57619 15.4112 3.57608 15.4112 3.57603 15.4111C3.57592 15.4111 3.57584 15.4111 3.5758 15.411C3.57571 15.411 3.57577 15.411 3.57596 15.4111C3.57634 15.4113 3.57726 15.4116 3.57872 15.4122C3.58164 15.4134 3.58669 15.4155 3.59379 15.4185C3.60798 15.4244 3.63034 15.4339 3.66013 15.4468C3.71974 15.4726 3.80895 15.5122 3.92201 15.5649C4.1485 15.6707 4.46871 15.8287 4.83718 16.0348C5.58208 16.4514 6.48788 17.0446 7.21894 17.7754L8.22107 16.7728C7.33078 15.8828 6.27235 15.1989 5.45836 14.7437C5.04737 14.5138 4.68948 14.3372 4.43271 14.2173C4.30415 14.1572 4.20045 14.1112 4.12756 14.0796C4.0911 14.0639 4.0623 14.0517 4.04191 14.0431C4.03171 14.0389 4.02361 14.0355 4.0177 14.0331C4.01475 14.0319 4.01234 14.0309 4.01049 14.0301C4.00956 14.0298 4.00878 14.0294 4.00813 14.0292C4.00781 14.029 4.00752 14.0289 4.00727 14.0288C4.00714 14.0288 4.00698 14.0287 4.00692 14.0287C4.00677 14.0286 4.00662 14.0286 3.79154 14.7199ZM7.21894 17.7754C7.95 18.5061 8.54338 19.4116 8.96013 20.1562C9.16627 20.5245 9.3243 20.8446 9.43009 21.071C9.4829 21.184 9.52247 21.2732 9.54829 21.3328C9.56119 21.3625 9.57064 21.3849 9.57658 21.3991C9.57955 21.4061 9.58163 21.4112 9.58283 21.4141C9.58343 21.4156 9.58381 21.4165 9.58397 21.4169C9.58404 21.4171 9.58407 21.4171 9.58403 21.417C9.58401 21.417 9.58398 21.4169 9.58394 21.4168C9.58391 21.4167 9.58387 21.4166 9.58386 21.4166C9.58381 21.4165 9.58376 21.4164 10.2751 21.2011C10.9664 20.9858 10.9663 20.9857 10.9662 20.9855C10.9662 20.9855 10.9662 20.9853 10.9661 20.9852C10.966 20.9849 10.9659 20.9846 10.9658 20.9843C10.9655 20.9837 10.9652 20.9829 10.9648 20.982C10.964 20.9801 10.9631 20.9777 10.9618 20.9747C10.9594 20.9688 10.9561 20.9607 10.9518 20.9505C10.9433 20.9302 10.9311 20.9014 10.9153 20.8649C10.8837 20.792 10.8376 20.6884 10.7776 20.5599C10.6576 20.3032 10.4809 19.9454 10.251 19.5345C9.79551 18.7208 9.11136 17.6628 8.22107 16.7728L7.21894 17.7754ZM21.5835 11.4091C23.6288 9.43995 23.4729 5.99317 21.2375 3.75855L20.2354 4.76112C21.8469 6.37202 21.9592 8.85673 20.4848 10.2763L21.5835 11.4091ZM14.7222 4.51201C16.1415 3.03884 18.6247 3.15104 20.2354 4.76112L21.2375 3.75855C19.0032 1.52507 15.5586 1.36942 13.5897 3.41299L14.7222 4.51201Z" fill="#EEEEEE"/>
<path d="M10.2686 21.2097L10.5294 21.9369C10.721 21.8867 10.8753 21.7578 10.9567 21.5801C11.038 21.4023 11.0392 21.191 10.9601 20.9951L10.2686 21.2097ZM3.791 14.7226L4.0067 14.0314C3.811 13.9521 3.59979 13.953 3.42191 14.0339C3.24403 14.1149 3.11489 14.269 3.06436 14.4605L3.791 14.7226ZM2.36554 23.2783L2.10483 22.5512L2.36554 23.2783ZM1.70731 22.6188L0.980674 22.3566L1.70731 22.6188ZM10.0079 20.4826L2.10483 22.5512L2.62624 24.0055L10.5294 21.9369L10.0079 20.4826ZM2.43395 22.8809L4.51763 14.9848L3.06436 14.4605L0.980674 22.3566L2.43395 22.8809ZM3.791 14.7226C3.57529 15.4138 3.57517 15.4137 3.57505 15.4137C3.57502 15.4137 3.57491 15.4136 3.57486 15.4136C3.57474 15.4136 3.57467 15.4135 3.57463 15.4135C3.57454 15.4135 3.5746 15.4135 3.57479 15.4136C3.57516 15.4137 3.57609 15.4141 3.57755 15.4147C3.58047 15.4159 3.58552 15.418 3.59261 15.421C3.6068 15.4269 3.62914 15.4364 3.65892 15.4493C3.71851 15.4752 3.80769 15.5148 3.9207 15.5677C4.14709 15.6737 4.46716 15.832 4.83544 16.0384C5.57996 16.4557 6.48523 17.0497 7.21563 17.7812L8.21866 16.7795C7.32918 15.8888 6.27137 15.2039 5.45779 14.7479C5.04702 14.5177 4.68928 14.3407 4.43262 14.2205C4.30412 14.1604 4.20046 14.1143 4.1276 14.0826C4.09115 14.0668 4.06236 14.0546 4.04198 14.046C4.03178 14.0418 4.02369 14.0384 4.01778 14.036C4.01482 14.0348 4.01242 14.0338 4.01057 14.033C4.00964 14.0326 4.00886 14.0323 4.00821 14.0321C4.00789 14.0319 4.0076 14.0318 4.00735 14.0317C4.00723 14.0316 4.00706 14.0316 4.007 14.0316C4.00685 14.0315 4.0067 14.0314 3.791 14.7226ZM7.21563 17.7812C7.94602 18.5127 8.53859 19.4186 8.95466 20.1636C9.16047 20.5321 9.31821 20.8524 9.42379 21.0789C9.4765 21.1919 9.51599 21.2811 9.54175 21.3407C9.55463 21.3705 9.56406 21.3929 9.56998 21.4071C9.57294 21.4142 9.57503 21.4192 9.57622 21.4221C9.57682 21.4236 9.5772 21.4245 9.57735 21.4249C9.57743 21.4251 9.57745 21.4251 9.57742 21.4251C9.5774 21.425 9.57737 21.4249 9.57733 21.4248C9.5773 21.4248 9.57726 21.4247 9.57725 21.4246C9.5772 21.4245 9.57715 21.4244 10.2686 21.2097C10.9601 20.9951 10.9601 20.995 10.96 20.9948C10.96 20.9948 10.9599 20.9946 10.9599 20.9945C10.9598 20.9942 10.9597 20.9939 10.9595 20.9936C10.9593 20.993 10.959 20.9922 10.9586 20.9912C10.9578 20.9894 10.9568 20.987 10.9556 20.984C10.9532 20.9781 10.9499 20.97 10.9456 20.9598C10.9371 20.9394 10.9249 20.9106 10.9092 20.8742C10.8776 20.8013 10.8317 20.6976 10.7717 20.569C10.652 20.3122 10.4756 19.9542 10.246 19.5432C9.79134 18.729 9.10815 17.6703 8.21866 16.7795L7.21563 17.7812ZM2.10483 22.5512C2.29384 22.5017 2.4838 22.692 2.43395 22.8809L0.980674 22.3566C0.731431 23.3011 1.68123 24.2528 2.62624 24.0055L2.10483 22.5512Z" fill="#EEEEEE"/>
</svg>
